<svg width="358" height="50" viewBox="0 0 358 50" fill="none" xmlns="http://www.w3.org/2000/svg">
<path opacity="0.5" fill-rule="evenodd" clip-rule="evenodd" d="M332.951 17.3332C332.505 16.887 331.781 16.887 331.335 17.3333C330.888 17.7795 330.888 18.5032 331.335 18.9495L337.384 24.9985L331.335 31.0475C330.888 31.4939 330.888 32.2175 331.335 32.6638C331.781 33.1101 332.505 33.1101 332.951 32.6638L339.808 25.8066C340.254 25.3603 340.254 24.6367 339.808 24.1904L332.951 17.3332Z" fill="#33485D"/>
<path d="M42.8667 9V10.7H27C24.6048 10.6982 22.2432 11.2627 20.1076 12.3473L16.2333 11.1839C14.5139 10.6669 12.7009 11.6417 12.1839 13.3611C12.0003 13.9717 12.0003 14.6227 12.1839 15.2333L13.3473 19.1093C12.2629 21.2443 11.6985 23.6054 11.7 26C11.7 26.17 11.7074 26.336 11.713 26.5032C11.7073 26.524 11.7029 26.5453 11.7 26.5667V41.8667H10V43H21.3333V41.8667H19.6333V39.4045C24.0526 41.841 29.391 41.9338 33.8924 39.6527L37.7667 40.8161C39.4861 41.3331 41.2991 40.3583 41.8161 38.6389C41.9997 38.0284 41.9997 37.3773 41.8161 36.7667L40.6527 32.8907C41.7371 30.7557 42.3015 28.3946 42.3 26C42.2981 23.8523 41.8457 21.7288 40.9723 19.7667H42.8667V21.4667H44V9H42.8667ZM13.2702 14.9058C12.9329 13.7876 13.566 12.6077 14.6842 12.2704C15.0824 12.1502 15.5071 12.1502 15.9052 12.2702L18.742 13.1202C18.6553 13.1769 18.572 13.2336 18.4881 13.2902L18.4088 13.3441C16.8095 14.4282 15.4311 15.8067 14.3469 17.4059L14.2931 17.4853C14.2364 17.5703 14.1763 17.6553 14.1231 17.7391L13.2702 14.9058ZM18.5 41.8667H12.8333V40.7333H18.5V41.8667ZM12.8333 39.6V31.7704C12.9739 32.1141 13.1265 32.4519 13.2912 32.7836L13.3156 32.8306C13.4667 33.1328 13.6284 33.4305 13.8006 33.7237C13.8205 33.7571 13.8386 33.7905 13.8573 33.824C14.0284 34.1107 14.2088 34.3912 14.3985 34.6655C14.4455 34.7335 14.4948 34.8003 14.543 34.8683C14.6941 35.0814 14.8514 35.2903 15.015 35.4951C15.0717 35.5642 15.1221 35.6339 15.1776 35.7019C15.3675 35.9331 15.5658 36.1552 15.7687 36.3768C15.8542 36.4697 15.9426 36.5604 16.031 36.6516C16.1886 36.8137 16.3497 36.9724 16.5144 37.1276C16.6198 37.2274 16.7258 37.326 16.8346 37.4223C17.0235 37.5912 17.2167 37.7549 17.4143 37.9136C17.5129 37.9929 17.612 38.0711 17.7129 38.1482C17.9543 38.3329 18.1991 38.5131 18.4496 38.6837C18.466 38.695 18.4807 38.7075 18.4972 38.7183L18.5 39.6H12.8333ZM40.7298 37.0942C41.0662 38.2134 40.4316 39.3932 39.3125 39.7296C38.9154 39.849 38.4919 39.8491 38.0948 39.7298L35.258 38.8798C35.3447 38.8231 35.428 38.7664 35.5119 38.7098L35.5912 38.6559C37.1905 37.5718 38.5689 36.1933 39.6531 34.5941L39.7069 34.5147C39.7636 34.4297 39.8237 34.3447 39.8769 34.2609L40.7298 37.0942ZM41.1667 26C41.169 28.3256 40.595 30.6156 39.4961 32.6651C39.3618 32.9173 39.2196 33.1632 39.0711 33.4052C39.0071 33.5095 38.9397 33.6115 38.8734 33.714C38.7776 33.8614 38.6784 34.0059 38.5776 34.1487C38.4378 34.3474 38.2925 34.5423 38.1418 34.7335C38.0608 34.8372 37.9803 34.9409 37.8964 35.0423C37.7774 35.1859 37.6554 35.3268 37.5304 35.465C37.4737 35.5268 37.417 35.5874 37.3604 35.6481C37.1314 35.894 36.894 36.1314 36.6481 36.3604C36.5874 36.417 36.5268 36.4737 36.465 36.5304C36.326 36.655 36.1851 36.7771 36.0423 36.8964C35.9409 36.9803 35.8372 37.0608 35.7335 37.1418C35.5427 37.2929 35.3478 37.4382 35.1487 37.5776C35.0059 37.6784 34.8614 37.7776 34.714 37.8734C34.6115 37.9397 34.5095 38.0071 34.4052 38.0711C34.1632 38.2196 33.9173 38.3618 33.6651 38.4961C29.0945 40.9414 23.5516 40.6869 19.2242 37.8331C19.1035 37.7538 18.9851 37.6716 18.8672 37.5889C18.7675 37.5192 18.6672 37.4501 18.5697 37.3775C18.4518 37.2897 18.3379 37.1985 18.2235 37.1084C18.0478 36.969 17.8757 36.826 17.7072 36.6794C17.6177 36.6012 17.5265 36.5236 17.4386 36.4431C17.3349 36.3479 17.2341 36.2499 17.1332 36.1518C17.0499 36.0708 16.9666 35.9892 16.8856 35.9059C16.7896 35.8084 16.6952 35.7095 16.6022 35.609C16.515 35.5143 16.4322 35.418 16.345 35.3211C16.2577 35.2242 16.1823 35.1369 16.1036 35.0423C15.9477 34.8547 15.7959 34.6643 15.6502 34.4688C15.6185 34.4263 15.589 34.3821 15.5579 34.3396C15.4326 34.1696 15.3097 33.9928 15.1918 33.8155C15.1533 33.7588 15.117 33.6982 15.0785 33.6398C14.9651 33.4664 14.8592 33.2913 14.756 33.1134C14.7271 33.0641 14.6994 33.0153 14.671 32.966C14.5498 32.7518 14.433 32.5354 14.3231 32.3149L14.3067 32.2804C13.4207 30.4931 12.9234 28.5385 12.8475 26.5451C12.8401 26.3632 12.8333 26.1825 12.8333 26C12.831 23.6744 13.405 21.3844 14.5039 19.3349C14.6382 19.0827 14.7804 18.8368 14.9289 18.5948C14.9929 18.4905 15.0603 18.3885 15.1266 18.286C15.2224 18.1386 15.3216 17.9941 15.4224 17.8513C15.5622 17.6522 15.7075 17.4573 15.8582 17.2665C15.9392 17.1628 16.0197 17.0591 16.1036 16.9577C16.2226 16.8141 16.3446 16.6732 16.4696 16.535C16.5263 16.4732 16.583 16.4126 16.6396 16.3519C16.8686 16.106 17.106 15.8686 17.3519 15.6396C17.4126 15.583 17.4732 15.5263 17.535 15.4696C17.6736 15.345 17.8145 15.2229 17.9577 15.1036C18.0591 15.0197 18.1628 14.9392 18.2665 14.8582C18.4573 14.7071 18.6522 14.5618 18.8513 14.4224C18.9941 14.3216 19.1386 14.2224 19.286 14.1266C19.3885 14.0603 19.4905 13.9929 19.5948 13.9289C19.8368 13.7804 20.0827 13.6382 20.3349 13.5039C22.3844 12.405 24.6744 11.831 27 11.8333H38.3333V18.6333H33.2333V18.6685C29.1705 15.2122 23.0751 15.7038 19.6187 19.7667C16.1624 23.8295 16.654 29.9249 20.7169 33.3813C24.7797 36.8376 30.8751 36.346 34.3315 32.2831C37.4007 28.6754 37.4007 23.3744 34.3315 19.7667H39.7149C40.6737 21.7045 41.1706 23.838 41.1667 26ZM35.5 26C35.5 30.6944 31.6944 34.5 27 34.5C22.3056 34.5 18.5 30.6944 18.5 26C18.5 21.3056 22.3056 17.5 27 17.5C31.6922 17.5053 35.4947 21.3078 35.5 26ZM42.8667 18.6333H39.4667V11.8333H42.8667V18.6333Z" fill="#5C6D7D"/>
<path d="M34.3337 25.3522C34.3269 25.2723 34.3173 25.193 34.3082 25.1136C34.2918 24.9839 34.2714 24.8547 34.2515 24.726C34.2243 24.5708 34.1915 24.4178 34.1546 24.2665C34.1286 24.1582 34.1036 24.05 34.0725 23.9423L34.0668 23.9253C34.0067 23.7213 33.9359 23.5219 33.8588 23.3252C33.8481 23.298 33.8396 23.2686 33.8282 23.2419C33.7449 23.0368 33.6514 22.8373 33.5506 22.6413C33.5426 22.6254 33.5358 22.6084 33.5273 22.5925C33.4208 22.3897 33.3052 22.1959 33.1811 22.0021C33.1749 21.993 33.1698 21.9834 33.1635 21.9737C33.0406 21.7867 32.9091 21.6065 32.7703 21.4314C32.7561 21.4161 32.7465 21.4008 32.7351 21.3872C32.6071 21.2286 32.4711 21.0773 32.3311 20.9299C32.3033 20.901 32.2784 20.8699 32.2501 20.8415C32.1311 20.7203 32.0047 20.6069 31.8772 20.4942C31.8205 20.4449 31.7695 20.3922 31.7123 20.344C31.6126 20.2607 31.5066 20.1859 31.4029 20.1077C31.3122 20.0397 31.225 19.9683 31.1315 19.9048C31.0493 19.8482 30.9615 19.8006 30.8782 19.7484C30.7648 19.6787 30.6583 19.6051 30.5433 19.5422C30.5348 19.5371 30.5257 19.5337 30.5172 19.5291C30.4719 19.5042 30.4231 19.4844 30.3772 19.4606C30.2152 19.3767 30.052 19.2945 29.8842 19.2231C29.8134 19.1925 29.7386 19.1665 29.6661 19.1404C29.5187 19.0837 29.3725 19.0271 29.2218 18.9778C29.1362 18.9506 29.0478 18.9307 28.9606 18.9069C28.8195 18.8678 28.6772 18.8276 28.5344 18.797C28.437 18.776 28.3372 18.763 28.2386 18.746C28.1026 18.7233 27.9672 18.699 27.8301 18.6837C27.7167 18.6706 27.5994 18.6661 27.4838 18.6582C27.3682 18.6502 27.2419 18.6417 27.1195 18.64C27.0798 18.64 27.0407 18.6338 27.0005 18.6338C26.8928 18.6338 26.7874 18.6451 26.6809 18.6502C26.5959 18.6542 26.5109 18.6559 26.4253 18.6627C26.2372 18.6774 26.0524 18.7012 25.8688 18.7301C25.8275 18.7364 25.7861 18.7415 25.7442 18.7488C25.5303 18.7866 25.32 18.833 25.1129 18.8882C25.0993 18.8916 25.0857 18.8933 25.0727 18.8967L25.0528 18.903C24.8315 18.9642 24.6146 19.0352 24.4023 19.116L24.3456 19.1353C24.1334 19.218 23.9255 19.31 23.7223 19.4113C23.7047 19.4203 23.6872 19.4277 23.6702 19.4368C23.4713 19.5376 23.2786 19.6481 23.091 19.766C23.0695 19.7796 23.048 19.7915 23.027 19.8051C22.8502 19.9184 22.6796 20.0408 22.5136 20.1689C22.483 20.1927 22.4507 20.2142 22.4207 20.2386C22.2722 20.3565 22.1305 20.4823 21.9923 20.6109C21.9481 20.6517 21.9027 20.6897 21.8602 20.731C21.7435 20.8444 21.6336 20.9656 21.5242 21.0869C21.4675 21.1504 21.4109 21.2104 21.3542 21.275C21.2669 21.3793 21.1842 21.4898 21.1054 21.5986C21.0397 21.6859 20.9706 21.7686 20.9088 21.8615C20.8402 21.9613 20.7807 22.0672 20.7173 22.1709C20.6538 22.2746 20.5949 22.3579 20.541 22.4543C20.5371 22.4616 20.5342 22.4696 20.5303 22.4764C20.3988 22.7198 20.2811 22.9705 20.1778 23.2272C20.1489 23.298 20.1257 23.3694 20.099 23.4408C20.0259 23.6386 19.9602 23.8375 19.9035 24.0449C19.8814 24.1259 19.8605 24.2064 19.8406 24.288C19.7919 24.4943 19.7528 24.7034 19.7211 24.9153C19.7097 24.9907 19.6956 25.0649 19.6871 25.142C19.6524 25.4266 19.6345 25.7131 19.6332 25.9999C19.6332 26.2158 19.6463 26.4317 19.6661 26.6476C19.6729 26.7275 19.6825 26.8068 19.6916 26.8862C19.708 27.0159 19.7284 27.1451 19.7483 27.2738C19.7755 27.429 19.8083 27.582 19.8452 27.7333C19.8712 27.8416 19.8962 27.9498 19.9273 28.0575L19.933 28.0745C19.9936 28.279 20.0645 28.4791 20.1415 28.6757C20.1517 28.7029 20.1602 28.7324 20.171 28.7573C20.2549 28.9636 20.3489 29.1647 20.4504 29.3614C20.4583 29.3761 20.4645 29.3914 20.4719 29.4061C20.5796 29.6109 20.6961 29.8094 20.8215 30.0017C20.8266 30.0096 20.8306 30.0176 20.8357 30.0249C20.9598 30.2142 21.093 30.3967 21.2324 30.574C21.242 30.5859 21.2505 30.5984 21.2601 30.6103C21.3893 30.7712 21.5276 30.9248 21.6704 31.0744C21.6953 31.101 21.7186 31.1311 21.7446 31.156C21.8659 31.2801 21.9951 31.3957 22.1254 31.5107C22.1781 31.5578 22.228 31.6082 22.2824 31.6535C22.385 31.7397 22.4949 31.8173 22.6026 31.8978C22.6893 31.9629 22.7726 32.0321 22.8632 32.0933C22.9539 32.1545 23.0383 32.2009 23.1256 32.2553C23.2344 32.3228 23.3404 32.3947 23.4526 32.4565C23.4599 32.4605 23.4679 32.4633 23.4747 32.4673C23.7181 32.5987 23.9688 32.7164 24.2255 32.8197C24.2963 32.8486 24.3677 32.8719 24.4391 32.8985C24.6369 32.9716 24.8358 33.0373 25.0432 33.094C25.1242 33.1161 25.2047 33.1371 25.2863 33.1569C25.4926 33.2056 25.7017 33.2447 25.9136 33.2765C25.989 33.2878 26.0632 33.302 26.1403 33.3105C26.4254 33.3459 26.7125 33.3646 26.9999 33.3666C27.2158 33.3666 27.4317 33.3535 27.6476 33.3337C27.7275 33.3269 27.8068 33.3173 27.8862 33.3082C28.0159 33.2918 28.1451 33.2714 28.2738 33.2515C28.429 33.2243 28.582 33.1915 28.7333 33.1546C28.841 33.1286 28.9492 33.1042 29.0563 33.073L29.0733 33.0674C29.2773 33.0073 29.4768 32.9365 29.6734 32.8594C29.7006 32.8486 29.7301 32.8401 29.7567 32.8288C29.9613 32.7461 30.1608 32.6526 30.3557 32.5523L30.4061 32.5279C30.6079 32.4217 30.8036 32.3069 30.9932 32.1834C31.004 32.1766 31.0147 32.1709 31.0255 32.1635C31.2108 32.0423 31.3887 31.9119 31.5621 31.7748C31.578 31.7618 31.5956 31.7504 31.6114 31.7374C31.7673 31.6122 31.9152 31.4784 32.0597 31.3407C32.092 31.3107 32.126 31.2841 32.1577 31.2518C32.275 31.1384 32.3844 31.0132 32.4943 30.8902C32.5476 30.8336 32.6037 30.7769 32.6547 30.714C32.7334 30.6194 32.8048 30.5185 32.8813 30.4199C32.9578 30.3213 33.0287 30.2318 33.0961 30.1326C33.1454 30.0601 33.1879 29.983 33.2349 29.9059C33.3103 29.7858 33.3902 29.6679 33.4616 29.5427C33.4656 29.5353 33.4684 29.5274 33.4724 29.52C33.6038 29.277 33.7213 29.0267 33.8243 28.7703C33.8532 28.6995 33.8764 28.6275 33.903 28.5561C33.9786 28.3586 34.0438 28.1572 34.0985 27.9521C34.1206 27.871 34.1416 27.7911 34.1614 27.7095C34.2102 27.5033 34.2493 27.2936 34.281 27.0811C34.2923 27.0063 34.3065 26.9326 34.315 26.8573C34.3489 26.5727 34.3661 26.2864 34.3666 25.9999C34.3666 25.784 34.3535 25.5681 34.3337 25.3522ZM30.4231 23.3507C30.4486 23.3184 30.4696 23.2833 30.4934 23.2499C30.5331 23.1932 30.5744 23.1411 30.6067 23.0833C30.6311 23.0442 30.6509 23.0022 30.673 22.9614C30.7031 22.9048 30.7348 22.8543 30.7609 22.7982C30.7813 22.7546 30.7971 22.7093 30.8147 22.6651C30.8379 22.6084 30.8623 22.5546 30.8816 22.4951C30.8969 22.4503 30.9071 22.4033 30.9201 22.3574C30.9365 22.3007 30.9547 22.244 30.9677 22.1828C30.9779 22.1358 30.983 22.0882 30.9904 22.0412C31.0006 21.9817 31.0119 21.9227 31.0176 21.8627C31.0221 21.8139 31.0221 21.7658 31.0244 21.717C31.0272 21.657 31.0317 21.5975 31.0306 21.5368C31.0306 21.4881 31.0238 21.4388 31.0204 21.3895C31.017 21.3402 31.0164 21.2864 31.0096 21.2348C31.0266 21.249 31.0419 21.2648 31.0584 21.2796C31.2354 21.4326 31.4035 21.5955 31.5621 21.7675C31.5944 21.802 31.6256 21.8366 31.6568 21.8717C32.0098 22.2696 32.311 22.7106 32.5532 23.1841C32.5657 23.2091 32.577 23.2346 32.5895 23.2595C32.6998 23.483 32.7963 23.7132 32.8785 23.9486C32.8847 23.9639 32.8932 23.9786 32.8961 23.9945L32.8949 24.0018L32.3266 24.7532C32.0046 25.1803 31.5014 25.4319 30.9666 25.4332H28.6036C28.5939 25.406 28.5815 25.3805 28.5707 25.3539L28.5594 25.3267C28.5509 25.3069 28.5441 25.2865 28.5344 25.2666L30.2055 23.5955C30.2827 23.5182 30.3554 23.4364 30.4231 23.3507ZM26.873 19.7728C27.035 19.7694 27.1965 19.7728 27.3575 19.7847C27.4385 19.7892 27.5207 19.7892 27.6011 19.7972C27.8279 19.8183 28.0532 19.8524 28.276 19.8992C28.3361 19.9116 28.3939 19.9303 28.4534 19.9445C28.6234 19.9859 28.7934 20.0312 28.9589 20.0867C29.0354 20.1122 29.1096 20.1434 29.1855 20.1695C29.3325 20.2246 29.4774 20.2853 29.6202 20.3514C29.6644 20.3718 29.708 20.3933 29.7522 20.4148L29.8859 21.3521C29.9605 21.8816 29.7827 22.4154 29.4054 22.7943L27.7343 24.4654C27.7145 24.4557 27.6941 24.4489 27.6742 24.4404L27.647 24.4291C27.6204 24.4183 27.5949 24.4059 27.5677 24.3962V21.7329C27.5662 21.5676 27.5503 21.4029 27.5201 21.2405C27.5122 21.1951 27.502 21.1504 27.4918 21.1056C27.4641 20.9823 27.4281 20.8609 27.3841 20.7424C27.3705 20.7055 27.3597 20.6687 27.345 20.633C27.2837 20.4868 27.2104 20.346 27.1257 20.212C27.1076 20.1842 27.086 20.1587 27.069 20.1309C26.996 20.0248 26.9158 19.9239 26.8288 19.8289C26.814 19.8125 26.8027 19.7926 26.7874 19.7762C26.814 19.7762 26.8435 19.7734 26.873 19.7728ZM22.2767 21.9437V21.9448C22.4423 21.7536 22.6192 21.5725 22.8066 21.4025C22.836 21.3759 22.8632 21.3459 22.8944 21.3226C23.3242 20.946 23.8033 20.6297 24.3184 20.3825L24.3451 20.3701C24.6104 20.244 24.8844 20.1372 25.165 20.0505L25.4937 20.2148C26.0709 20.5007 26.4352 21.0899 26.4332 21.734V24.3974C26.406 24.407 26.3805 24.4195 26.3539 24.4302L26.3267 24.4416C26.3069 24.4501 26.2865 24.4569 26.2666 24.4665L24.5955 22.7954C24.4734 22.676 24.3406 22.5679 24.1989 22.4724C24.1768 22.4571 24.1552 22.4412 24.1326 22.4265C23.996 22.3387 23.8521 22.2629 23.7025 22.1998C23.677 22.1891 23.6515 22.1794 23.6254 22.1692C23.4703 22.107 23.3101 22.0585 23.1466 22.0242L23.1199 22.0202C22.9575 21.9899 22.7928 21.9738 22.6275 21.972C22.6139 21.972 22.6003 21.9675 22.5861 21.9675C22.572 21.9675 22.5674 21.9675 22.5584 21.9675C22.4853 21.9675 22.4122 21.9743 22.3391 21.9811C22.3045 21.9811 22.2699 21.9811 22.2354 21.9879C22.2501 21.972 22.2637 21.9584 22.2767 21.9437ZM20.8929 26.4175V26.4215C20.8601 26.4595 20.8244 26.4957 20.7938 26.5348C20.7785 26.3558 20.7666 26.1795 20.7666 25.9999C20.7672 25.7727 20.7802 25.5457 20.8057 25.3199C20.8119 25.2632 20.8238 25.2066 20.8312 25.1533C20.855 24.9833 20.8816 24.8133 20.919 24.6495C20.9337 24.5815 20.9536 24.5158 20.9706 24.4484C21.0091 24.2993 21.0516 24.1514 21.1009 24.0052C21.1264 23.9293 21.1547 23.8545 21.1836 23.7786C21.2335 23.6477 21.2885 23.5185 21.3474 23.391C21.3689 23.3439 21.3922 23.2969 21.4148 23.2504L22.3521 23.1167C22.8816 23.0416 23.4157 23.2195 23.7943 23.5972L25.4654 25.2683C25.4563 25.2876 25.4495 25.308 25.441 25.325L25.4285 25.3545C25.4178 25.3805 25.4053 25.406 25.3962 25.4327H23.0332C22.9238 25.4328 22.8144 25.4392 22.7057 25.4519C22.6677 25.4565 22.6309 25.4661 22.5924 25.4718C22.5227 25.4831 22.4524 25.4927 22.3838 25.5092C22.3413 25.5194 22.3 25.5341 22.2575 25.5466C22.1957 25.5641 22.1334 25.58 22.0733 25.6032C22.0297 25.6191 21.9877 25.6395 21.9452 25.6599C21.8886 25.6837 21.8319 25.7052 21.7752 25.733C21.7316 25.7545 21.6908 25.7806 21.6483 25.8044C21.5967 25.8333 21.544 25.8611 21.4942 25.8928C21.4443 25.9245 21.4131 25.9495 21.3723 25.9806C21.3315 26.0118 21.2771 26.0469 21.2318 26.0843C21.1865 26.1217 21.1576 26.1518 21.1185 26.1858C21.0794 26.2198 21.0312 26.2634 20.991 26.3053C20.9507 26.3473 20.9264 26.379 20.8929 26.4175ZM23.5761 28.6496V28.6536C23.5551 28.6802 23.5381 28.7103 23.5194 28.7363C23.4752 28.797 23.4299 28.857 23.3908 28.9211C23.3698 28.9545 23.3534 28.9908 23.3341 29.0253C23.3007 29.082 23.2656 29.1443 23.2367 29.2061C23.218 29.2458 23.2044 29.2866 23.1879 29.3268C23.163 29.3863 23.1369 29.4458 23.116 29.507C23.1018 29.5495 23.0922 29.5931 23.0803 29.6362C23.0627 29.6968 23.0434 29.7569 23.0304 29.8192C23.0208 29.8646 23.0157 29.9105 23.0083 29.9564C22.9981 30.017 22.9868 30.0776 22.9805 30.1394C22.976 30.187 22.976 30.2352 22.9737 30.2833C22.9737 30.344 22.9664 30.404 22.9675 30.4641C22.9675 30.514 22.9743 30.5633 22.9777 30.6131C22.9811 30.663 22.9817 30.7157 22.9885 30.7667C22.9732 30.7537 22.959 30.7395 22.9443 30.7265C22.7651 30.5711 22.5948 30.4058 22.4343 30.2312C22.4037 30.1983 22.3731 30.1649 22.343 30.1315C21.9906 29.7332 21.6897 29.292 21.4477 28.8185C21.4352 28.7947 21.4239 28.7698 21.412 28.7454C21.3017 28.5213 21.205 28.2909 21.1224 28.0552C21.1168 28.0399 21.1105 28.0252 21.1054 28.0093L21.6732 27.2466C21.9953 26.8196 22.4985 26.568 23.0332 26.5666H25.3962C25.4053 26.5932 25.4178 26.6187 25.4285 26.6448L25.441 26.6742C25.4495 26.6935 25.4563 26.7139 25.4654 26.7309L23.7943 28.402C23.7169 28.4803 23.644 28.563 23.5761 28.6496ZM27.4306 32.2111L27.4294 32.2151C27.2207 32.2301 27.0113 32.2341 26.8021 32.227C26.7228 32.227 26.6429 32.2208 26.5641 32.2151C26.3613 32.2011 26.1595 32.1771 25.9589 32.1431C25.9091 32.1346 25.8581 32.1301 25.8088 32.1205C25.5595 32.0717 25.3135 32.0078 25.0721 31.9289C25.0217 31.9125 24.9735 31.8921 24.9236 31.8723C24.7347 31.805 24.5485 31.7285 24.3649 31.6428C24.3252 31.6246 24.2867 31.6059 24.2476 31.5861L24.115 30.6466C24.0404 30.1171 24.2183 29.5833 24.5955 29.2044L26.2666 27.5333C26.2865 27.5429 26.3069 27.5497 26.3273 27.5588L26.3539 27.5696C26.38 27.5803 26.406 27.5928 26.4332 27.6024V29.9666C26.4334 30.076 26.4398 30.1854 26.4525 30.2941C26.457 30.3326 26.4667 30.3695 26.4723 30.4074C26.4837 30.4771 26.4933 30.5468 26.5097 30.6154C26.5199 30.659 26.5352 30.701 26.5477 30.744C26.5653 30.8052 26.5811 30.8664 26.6044 30.9265C26.6202 30.9701 26.6412 31.0121 26.661 31.0557C26.6848 31.1124 26.7069 31.169 26.7341 31.2257C26.7557 31.2693 26.7817 31.3101 26.8055 31.3526C26.8344 31.4042 26.8622 31.4575 26.8939 31.5073C26.9257 31.5572 26.9506 31.5889 26.9823 31.6297C27.0141 31.6705 27.0486 31.7244 27.0849 31.7691C27.1212 31.8139 27.1535 31.8445 27.188 31.8825C27.2226 31.9204 27.2645 31.9692 27.3065 32.0094C27.3484 32.0496 27.383 32.0763 27.4198 32.1097C27.4566 32.1431 27.494 32.1777 27.5331 32.2083C27.4986 32.2089 27.464 32.2089 27.4306 32.2111ZM27.5224 26.2203C27.5028 26.2569 27.4797 26.2915 27.4532 26.3235C27.417 26.3739 27.3728 26.4181 27.3223 26.4544C27.2904 26.4808 27.2558 26.5039 27.2192 26.5235C27.079 26.5824 26.9209 26.5824 26.7806 26.5235C26.744 26.5039 26.7094 26.4808 26.6775 26.4544C26.6309 26.4214 26.5899 26.3815 26.5556 26.3359C26.5251 26.3014 26.4989 26.2634 26.4774 26.2226C26.4186 26.0823 26.4186 25.9242 26.4774 25.784C26.4985 25.7413 26.5248 25.7013 26.5556 25.665V25.6661C26.5899 25.6206 26.6309 25.5806 26.6775 25.5477C26.7094 25.5213 26.744 25.4981 26.7806 25.4786C26.9209 25.4197 27.079 25.4197 27.2192 25.4786C27.2558 25.4981 27.2904 25.5213 27.3223 25.5477C27.3728 25.584 27.417 25.6282 27.4532 25.6786C27.4797 25.7105 27.5028 25.7451 27.5224 25.7817C27.5812 25.922 27.5812 26.0801 27.5224 26.2203ZM31.718 30.0612L31.7168 30.0652C31.5638 30.2422 31.4009 30.4103 31.2289 30.5689C31.1944 30.6012 31.1598 30.6324 31.1247 30.6636C30.7274 31.014 30.2876 31.3129 29.8157 31.5532L29.7403 31.5895C29.5167 31.6998 29.2866 31.7963 29.0512 31.8785C29.0359 31.8842 29.0212 31.8904 29.0053 31.8955L28.2466 31.3266C27.8195 31.0046 27.5679 30.5013 27.5666 29.9666V27.6036C27.5938 27.5939 27.6193 27.5815 27.6459 27.5707L27.6731 27.5594C27.6929 27.5509 27.7133 27.5441 27.7332 27.5344L29.4043 29.2055C29.5265 29.3253 29.6592 29.4337 29.8009 29.5297L29.8633 29.5733C29.9998 29.6611 30.1437 29.7369 30.2934 29.8C30.3194 29.8113 30.3449 29.8215 30.371 29.8317C30.5241 29.8927 30.6822 29.9406 30.8436 29.9745C30.86 29.9779 30.877 29.9796 30.8935 29.9824C31.0572 30.0136 31.2233 30.0301 31.3899 30.0317C31.3978 30.0317 31.4052 30.0317 31.4125 30.0317H31.4227C31.5364 30.0316 31.65 30.0244 31.7627 30.0102C31.7486 30.0295 31.7327 30.0448 31.718 30.0612ZM33.193 26.6867C33.1868 26.7434 33.1749 26.8 33.1669 26.8567C33.1437 27.0267 33.1171 27.1916 33.0802 27.3565C33.0649 27.4256 33.0451 27.4931 33.0275 27.5611C32.989 27.709 32.9476 27.8557 32.8983 28.0002C32.8723 28.0773 32.8417 28.1532 32.8145 28.2269C32.7646 28.3572 32.7102 28.4853 32.6518 28.6122C32.6297 28.6598 32.6065 28.7063 32.5838 28.7533L31.6466 28.8871C31.1172 28.9612 30.5835 28.7834 30.2044 28.4065L28.5333 26.7354C28.5429 26.7156 28.5497 26.6952 28.5582 26.6754L28.5696 26.6482C28.5803 26.6215 28.5928 26.596 28.6024 26.5688H30.9666C31.076 26.5687 31.1854 26.5622 31.2941 26.5496C31.3326 26.545 31.3695 26.5354 31.4074 26.5297C31.4771 26.5184 31.5468 26.5088 31.6154 26.4923C31.659 26.4821 31.701 26.4668 31.744 26.4544C31.8052 26.4368 31.8664 26.4209 31.9265 26.3977C31.9701 26.3818 32.0121 26.3609 32.0557 26.341C32.1124 26.3172 32.169 26.2951 32.2257 26.2679C32.2693 26.2464 32.3101 26.2203 32.3526 26.1965C32.4042 26.1676 32.4575 26.1399 32.5073 26.1081C32.5572 26.0764 32.5889 26.0515 32.6297 26.0197C32.6705 25.988 32.7244 25.9534 32.7691 25.9172C32.8139 25.8809 32.8445 25.8486 32.8825 25.814C32.9204 25.7795 32.9692 25.7375 33.0094 25.6956C33.0496 25.6537 33.074 25.6208 33.1074 25.5823L33.1063 25.5885C33.1392 25.55 33.1743 25.5143 33.2049 25.4752C33.2202 25.6508 33.2321 25.8271 33.2321 26.0067C33.2315 26.2339 33.2184 26.4609 33.193 26.6867Z" fill="#E67861"/>
<path d="M15.6666 13.5334H14.5333V14.6668H15.6666V13.5334Z" fill="#5C6D7D"/>
<path d="M39.4666 37.3333H38.3333V38.4666H39.4666V37.3333Z" fill="#5C6D7D"/>
<path d="M13.9667 25.9999H15.1001C15.1072 19.4307 20.4308 14.107 27.0001 14.0999V12.9666C19.8053 12.9747 13.9749 18.8051 13.9667 25.9999Z" fill="#5C6D7D"/>
<path d="M29.2666 12.9666H28.1333V14.0999H29.2666V12.9666Z" fill="#5C6D7D"/>
<path d="M65.0889 25.5156H63.5771V31H61.3623V18.2031H63.5771V23.582H64.7988L68.5605 18.2031H71.2852L66.8906 24.3291L71.6719 31H69L65.0889 25.5156ZM78.3779 31C78.2842 30.8184 78.2021 30.5225 78.1318 30.1123C77.4521 30.8213 76.6201 31.1758 75.6357 31.1758C74.6807 31.1758 73.9014 30.9033 73.2979 30.3584C72.6943 29.8135 72.3926 29.1396 72.3926 28.3369C72.3926 27.3232 72.7676 26.5469 73.5176 26.0078C74.2734 25.4629 75.3516 25.1904 76.752 25.1904H78.0615V24.5664C78.0615 24.0742 77.9238 23.6816 77.6484 23.3887C77.373 23.0898 76.9541 22.9404 76.3916 22.9404C75.9053 22.9404 75.5068 23.0635 75.1963 23.3096C74.8857 23.5498 74.7305 23.8574 74.7305 24.2324H72.5947C72.5947 23.7109 72.7676 23.2246 73.1133 22.7734C73.459 22.3164 73.9277 21.959 74.5195 21.7012C75.1172 21.4434 75.7822 21.3145 76.5146 21.3145C77.6279 21.3145 78.5156 21.5957 79.1777 22.1582C79.8398 22.7148 80.1797 23.5 80.1973 24.5137V28.8027C80.1973 29.6582 80.3174 30.3408 80.5576 30.8506V31H78.3779ZM76.0312 29.4619C76.4531 29.4619 76.8486 29.3594 77.2178 29.1543C77.5928 28.9492 77.874 28.6738 78.0615 28.3281V26.5352H76.9102C76.1191 26.5352 75.5244 26.6729 75.126 26.9482C74.7275 27.2236 74.5283 27.6133 74.5283 28.1172C74.5283 28.5273 74.6631 28.8555 74.9326 29.1016C75.208 29.3418 75.5742 29.4619 76.0312 29.4619ZM89.7773 23.1865H86.6924V31H84.5566V23.1865H81.5068V21.4902H89.7773V23.1865ZM94.8311 31.1758C93.4775 31.1758 92.3789 30.751 91.5352 29.9014C90.6973 29.0459 90.2783 27.9092 90.2783 26.4912V26.2275C90.2783 25.2783 90.46 24.4316 90.8232 23.6875C91.1924 22.9375 91.708 22.3545 92.3701 21.9385C93.0322 21.5225 93.7705 21.3145 94.585 21.3145C95.8799 21.3145 96.8789 21.7275 97.582 22.5537C98.291 23.3799 98.6455 24.5488 98.6455 26.0605V26.9219H92.4316C92.4961 27.707 92.7568 28.3281 93.2139 28.7852C93.6768 29.2422 94.2568 29.4707 94.9541 29.4707C95.9326 29.4707 96.7295 29.0752 97.3447 28.2842L98.4961 29.3828C98.1152 29.9512 97.6055 30.3936 96.9668 30.71C96.334 31.0205 95.6221 31.1758 94.8311 31.1758ZM94.5762 23.0283C93.9902 23.0283 93.5156 23.2334 93.1523 23.6436C92.7949 24.0537 92.5664 24.625 92.4668 25.3574H96.5361V25.1992C96.4893 24.4844 96.2988 23.9453 95.9648 23.582C95.6309 23.2129 95.168 23.0283 94.5762 23.0283ZM106.644 23.2129H102.513V31H100.386V21.4902H106.644V23.2129ZM107.276 26.1572C107.276 25.2256 107.461 24.3877 107.83 23.6436C108.199 22.8936 108.718 22.3193 109.386 21.9209C110.054 21.5166 110.821 21.3145 111.688 21.3145C112.972 21.3145 114.012 21.7275 114.809 22.5537C115.611 23.3799 116.045 24.4756 116.109 25.8408L116.118 26.3418C116.118 27.2793 115.937 28.1172 115.573 28.8555C115.216 29.5938 114.7 30.165 114.026 30.5693C113.358 30.9736 112.585 31.1758 111.706 31.1758C110.364 31.1758 109.289 30.7305 108.48 29.8398C107.678 28.9434 107.276 27.751 107.276 26.2627V26.1572ZM109.412 26.3418C109.412 27.3203 109.614 28.0879 110.019 28.6445C110.423 29.1953 110.985 29.4707 111.706 29.4707C112.427 29.4707 112.986 29.1895 113.385 28.627C113.789 28.0645 113.991 27.2412 113.991 26.1572C113.991 25.1963 113.783 24.4346 113.367 23.8721C112.957 23.3096 112.397 23.0283 111.688 23.0283C110.991 23.0283 110.438 23.3066 110.027 23.8633C109.617 24.4141 109.412 25.2402 109.412 26.3418ZM126.252 26.3418C126.252 27.8125 125.918 28.9873 125.25 29.8662C124.582 30.7393 123.686 31.1758 122.561 31.1758C121.518 31.1758 120.683 30.833 120.056 30.1475V34.6562H117.92V21.4902H119.889L119.977 22.457C120.604 21.6953 121.456 21.3145 122.534 21.3145C123.694 21.3145 124.603 21.748 125.259 22.6152C125.921 23.4766 126.252 24.6748 126.252 26.21V26.3418ZM124.125 26.1572C124.125 25.208 123.935 24.4551 123.554 23.8984C123.179 23.3418 122.64 23.0635 121.937 23.0635C121.063 23.0635 120.437 23.4238 120.056 24.1445V28.3633C120.442 29.1016 121.075 29.4707 121.954 29.4707C122.634 29.4707 123.164 29.1982 123.545 28.6533C123.932 28.1025 124.125 27.2705 124.125 26.1572ZM134.004 21.4902H136.131V31H134.004V24.6543L130.277 31H128.15V21.4902H130.277V27.8359L134.004 21.4902ZM146.019 21.4902V31H143.892V27.5107H141.896L139.866 31H137.651L139.893 27.1592C139.307 26.9131 138.855 26.5615 138.539 26.1045C138.229 25.6475 138.073 25.123 138.073 24.5312C138.073 23.6465 138.413 22.9229 139.093 22.3604C139.778 21.792 140.701 21.502 141.861 21.4902H146.019ZM140.209 24.584C140.209 24.9824 140.355 25.3076 140.648 25.5596C140.947 25.8057 141.328 25.9287 141.791 25.9287H143.892V23.1865H141.923C141.401 23.1865 140.985 23.3184 140.675 23.582C140.364 23.8457 140.209 24.1797 140.209 24.584ZM158.517 31H156.39V20.7256L153.252 21.7979V19.9961L158.244 18.1592H158.517V31Z" fill="#5C6D7D"/>
</svg>
