<svg width="358" height="50" viewBox="0 0 358 50" fill="none" xmlns="http://www.w3.org/2000/svg">
<path opacity="0.5" fill-rule="evenodd" clip-rule="evenodd" d="M332.951 17.3332C332.505 16.887 331.781 16.887 331.335 17.3332C330.888 17.7795 330.888 18.5032 331.335 18.9495L337.384 24.9985L331.335 31.0475C330.888 31.4939 330.888 32.2175 331.335 32.6638C331.781 33.1101 332.505 33.1101 332.951 32.6638L339.808 25.8066C340.254 25.3603 340.254 24.6367 339.808 24.1904L332.951 17.3332Z" fill="#33485D"/>
<g clip-path="url(#clip0_2401_201)">
<path fill-rule="evenodd" clip-rule="evenodd" d="M30.489 17.6907C31.0083 17.1052 31.9192 17.0949 32.4516 17.6685L37.9626 23.6055C38.0082 23.6546 38.1085 23.7655 38.1659 23.9289C38.264 24.2081 38.2669 24.5909 38.2387 24.8923C38.2234 25.0561 38.1962 25.2259 38.1552 25.3834C38.1164 25.5324 38.0556 25.7085 37.9548 25.8588C37.9 25.9404 37.8394 26.0022 37.8066 26.0352C37.7953 26.0466 37.7888 26.0531 37.7835 26.0584C37.7777 26.0641 37.7734 26.0684 37.7657 26.0763C37.7611 26.081 37.7579 26.0843 37.7556 26.0868C37.7545 26.088 37.7537 26.0889 37.7532 26.0895C37.7526 26.0901 37.7524 26.0904 37.7524 26.0904L26.7653 39.1227C26.7654 39.1226 26.7623 39.1263 26.7536 39.1386C26.7464 39.1488 26.7427 39.1541 26.7379 39.1612C26.7333 39.1679 26.7277 39.1762 26.7168 39.1919C26.6871 39.2345 26.63 39.3155 26.5469 39.3914C26.3186 39.6001 25.9868 39.7056 25.7435 39.7595C25.4812 39.8177 25.18 39.846 24.9322 39.817C24.6892 39.7886 24.5116 39.6659 24.4089 39.582L17.747 34.1324C17.1645 33.6559 17.0953 32.7904 17.5947 32.2274L30.489 17.6907ZM31.6191 18.4412C31.5431 18.3593 31.4129 18.3608 31.3388 18.4444L18.4444 32.9811C18.3731 33.0615 18.383 33.1852 18.4662 33.2532L25.1153 38.6923C25.2077 38.695 25.3484 38.6837 25.4976 38.6506C25.5834 38.6316 25.6577 38.6084 25.7143 38.5849C25.747 38.5712 25.7665 38.5605 25.7762 38.5548C25.7784 38.5517 25.7812 38.5478 25.7844 38.5431C25.7868 38.5397 25.7891 38.5364 25.7916 38.5327C25.7946 38.5283 25.7979 38.5235 25.8019 38.5177C25.8086 38.508 25.8169 38.4959 25.8258 38.4833C25.8435 38.4583 25.8675 38.4254 25.8968 38.3906L36.884 25.3583C36.9099 25.3275 36.9347 25.3014 36.9539 25.2818C36.9636 25.2719 36.9728 25.2627 36.9803 25.2552L36.9853 25.2502C36.991 25.2446 36.9955 25.2401 37.0001 25.2354C37.0064 25.229 37.0109 25.2244 37.0138 25.2212C37.0198 25.2089 37.0368 25.1708 37.056 25.0971C37.0787 25.01 37.097 24.9021 37.1078 24.7867C37.1185 24.6716 37.1208 24.5596 37.1156 24.4654C37.113 24.4186 37.1087 24.3799 37.1038 24.3501C37.1038 24.35 37.1038 24.3499 37.1038 24.3499L31.6191 18.4412ZM37.0605 32.1266L38.1363 31.7621L38.975 34.2373L41.5874 34.6392L41.4147 35.7618L38.1206 35.255L37.0605 32.1266ZM35.3596 34.4741L36.4354 34.1095L37.0865 36.0305L40.3212 36.6537L40.1063 37.769L36.2229 37.0208L35.3596 34.4741ZM33.548 36.7241L34.6123 36.3273L35.3453 38.2936H39.0779V39.4294H34.5565L33.548 36.7241Z" fill="#5C6D7D"/>
<path fill-rule="evenodd" clip-rule="evenodd" d="M35.6682 10.0893C35.903 10.2973 35.9248 10.6563 35.7168 10.891L11.6366 38.0759C11.4286 38.3107 11.0697 38.3324 10.8349 38.1245C10.6001 37.9165 10.5784 37.5575 10.7864 37.3227L34.8665 10.1379C35.0745 9.9031 35.4335 9.88136 35.6682 10.0893Z" fill="#5C6D7D"/>
<path fill-rule="evenodd" clip-rule="evenodd" d="M30.0583 27.6031C29.3916 26.5079 27.9565 26.1588 26.8613 26.8254C25.7661 27.4921 25.417 28.9272 26.0837 30.0224C26.7503 31.1176 28.1855 31.4667 29.2807 30.8001C30.3759 30.1334 30.7249 28.6983 30.0583 27.6031ZM26.2707 25.8552C27.9018 24.8624 30.0357 25.3814 31.0285 27.0125C32.0214 28.6435 31.5023 30.7775 29.8713 31.7703C28.2402 32.7631 26.1063 32.2441 25.1134 30.613C24.1206 28.982 24.6397 26.848 26.2707 25.8552Z" fill="#E67861"/>
<path fill-rule="evenodd" clip-rule="evenodd" d="M36.8319 28.2369C37.5747 27.368 38.9954 27.7843 39.1519 28.9166L39.4182 30.8443L38.2931 30.9997L38.0267 29.0721C38.0043 28.9103 37.8014 28.8509 37.6953 28.975L29.5557 38.4957C29.4439 38.6264 29.5504 38.8265 29.7213 38.8067L32.3491 38.503L32.4795 39.6313L29.8518 39.9351C28.6553 40.0734 27.9097 38.673 28.6923 37.7576L36.8319 28.2369Z" fill="#5C6D7D"/>
<path fill-rule="evenodd" clip-rule="evenodd" d="M14.3234 14.9014L17.1404 16.234L17.6261 15.2072L14.8091 13.8746C14.8091 13.8746 14.807 13.8736 14.802 13.8708C14.7963 13.8677 14.7891 13.8634 14.7779 13.8567C14.7752 13.8551 14.7718 13.8531 14.7679 13.8507C14.7475 13.8384 14.7123 13.8171 14.6784 13.7987C14.2399 13.5601 13.682 13.6578 13.3539 14.0567L11.5659 16.1805L11.563 16.1841C11.2018 16.6276 11.2584 17.2742 11.6841 17.6488L13.9107 19.9698L14.7304 19.1835L12.4893 16.8473L14.1892 14.8281C14.1908 14.8291 14.1924 14.8301 14.1941 14.8311C14.2229 14.8483 14.2692 14.8758 14.3234 14.9014Z" fill="#5C6D7D"/>
<path fill-rule="evenodd" clip-rule="evenodd" d="M38.8241 30.0165L41.3501 32.1812L41.9479 36.1955L37.76 41.4099L33.2594 41.4099L31.6114 38.5458L38.8241 30.0165ZM38.9531 31.623L32.9936 38.6704L33.9163 40.274L37.2154 40.274L40.7513 35.8715L40.289 32.7678L38.9531 31.623Z" fill="#5C6D7D"/>
<path d="M40.1771 41.6826L39.3051 40.9548L42.0225 37.6993L42.8945 38.4271L40.1771 41.6826Z" fill="#E67861"/>
<path d="M10.7206 16.3909L9.84857 15.663L12.5659 12.4075L13.4379 13.1354L10.7206 16.3909Z" fill="#E67861"/>
<path fill-rule="evenodd" clip-rule="evenodd" d="M25.4229 12.3638L28.4933 16.247L16.7396 29.9078L15.9423 30.705L12.4226 30.0103L11.1824 25.4789L12.9431 25.1513L12.8662 21.5366L14.8993 21.3832L14.9751 18.768L17.2172 18.6106L17.8674 15.4745H19.9997L20.5523 13.1165L25.4229 12.3638ZM21.1663 15.4745H24.0385L23.8116 19.9468L27.0212 16.2164L24.9424 13.5874L21.4833 14.122L21.1663 15.4745ZM22.6963 21.243L22.6088 21.2386L22.8435 16.6103H18.7919L18.3919 18.5396L20.969 18.3984L21.3454 22.8131L22.6963 21.243ZM20.3929 23.9202L20.3005 23.9281L19.9308 19.5928L17.7214 19.7139L16.0806 19.8291L16.038 21.299L17.9835 21.1575L18.9587 25.587L20.3929 23.9202ZM18.0326 26.6634L17.0855 22.3616L15.4949 22.4773L15.4933 22.4774L14.0246 22.5883L14.074 24.9079L15.8938 24.4798L16.6516 28.2685L18.0326 26.6634ZM15.7064 29.3346L15.0104 25.8545L13.6382 26.1774L12.6038 26.3698L13.3325 29.0322L15.5677 29.4733L15.7064 29.3346Z" fill="#5C6D7D"/>
</g>
<path d="M65.0889 25.5156H63.5771V31H61.3623V18.2031H63.5771V23.582H64.7988L68.5605 18.2031H71.2852L66.8906 24.3291L71.6719 31H69L65.0889 25.5156ZM78.3779 31C78.2842 30.8184 78.2021 30.5225 78.1318 30.1123C77.4521 30.8213 76.6201 31.1758 75.6357 31.1758C74.6807 31.1758 73.9014 30.9033 73.2979 30.3584C72.6943 29.8135 72.3926 29.1396 72.3926 28.3369C72.3926 27.3232 72.7676 26.5469 73.5176 26.0078C74.2734 25.4629 75.3516 25.1904 76.752 25.1904H78.0615V24.5664C78.0615 24.0742 77.9238 23.6816 77.6484 23.3887C77.373 23.0898 76.9541 22.9404 76.3916 22.9404C75.9053 22.9404 75.5068 23.0635 75.1963 23.3096C74.8857 23.5498 74.7305 23.8574 74.7305 24.2324H72.5947C72.5947 23.7109 72.7676 23.2246 73.1133 22.7734C73.459 22.3164 73.9277 21.959 74.5195 21.7012C75.1172 21.4434 75.7822 21.3145 76.5146 21.3145C77.6279 21.3145 78.5156 21.5957 79.1777 22.1582C79.8398 22.7148 80.1797 23.5 80.1973 24.5137V28.8027C80.1973 29.6582 80.3174 30.3408 80.5576 30.8506V31H78.3779ZM76.0312 29.4619C76.4531 29.4619 76.8486 29.3594 77.2178 29.1543C77.5928 28.9492 77.874 28.6738 78.0615 28.3281V26.5352H76.9102C76.1191 26.5352 75.5244 26.6729 75.126 26.9482C74.7275 27.2236 74.5283 27.6133 74.5283 28.1172C74.5283 28.5273 74.6631 28.8555 74.9326 29.1016C75.208 29.3418 75.5742 29.4619 76.0312 29.4619ZM89.7773 23.1865H86.6924V31H84.5566V23.1865H81.5068V21.4902H89.7773V23.1865ZM94.8311 31.1758C93.4775 31.1758 92.3789 30.751 91.5352 29.9014C90.6973 29.0459 90.2783 27.9092 90.2783 26.4912V26.2275C90.2783 25.2783 90.46 24.4316 90.8232 23.6875C91.1924 22.9375 91.708 22.3545 92.3701 21.9385C93.0322 21.5225 93.7705 21.3145 94.585 21.3145C95.8799 21.3145 96.8789 21.7275 97.582 22.5537C98.291 23.3799 98.6455 24.5488 98.6455 26.0605V26.9219H92.4316C92.4961 27.707 92.7568 28.3281 93.2139 28.7852C93.6768 29.2422 94.2568 29.4707 94.9541 29.4707C95.9326 29.4707 96.7295 29.0752 97.3447 28.2842L98.4961 29.3828C98.1152 29.9512 97.6055 30.3936 96.9668 30.71C96.334 31.0205 95.6221 31.1758 94.8311 31.1758ZM94.5762 23.0283C93.9902 23.0283 93.5156 23.2334 93.1523 23.6436C92.7949 24.0537 92.5664 24.625 92.4668 25.3574H96.5361V25.1992C96.4893 24.4844 96.2988 23.9453 95.9648 23.582C95.6309 23.2129 95.168 23.0283 94.5762 23.0283ZM106.644 23.2129H102.513V31H100.386V21.4902H106.644V23.2129ZM107.276 26.1572C107.276 25.2256 107.461 24.3877 107.83 23.6436C108.199 22.8936 108.718 22.3193 109.386 21.9209C110.054 21.5166 110.821 21.3145 111.688 21.3145C112.972 21.3145 114.012 21.7275 114.809 22.5537C115.611 23.3799 116.045 24.4756 116.109 25.8408L116.118 26.3418C116.118 27.2793 115.937 28.1172 115.573 28.8555C115.216 29.5938 114.7 30.165 114.026 30.5693C113.358 30.9736 112.585 31.1758 111.706 31.1758C110.364 31.1758 109.289 30.7305 108.48 29.8398C107.678 28.9434 107.276 27.751 107.276 26.2627V26.1572ZM109.412 26.3418C109.412 27.3203 109.614 28.0879 110.019 28.6445C110.423 29.1953 110.985 29.4707 111.706 29.4707C112.427 29.4707 112.986 29.1895 113.385 28.627C113.789 28.0645 113.991 27.2412 113.991 26.1572C113.991 25.1963 113.783 24.4346 113.367 23.8721C112.957 23.3096 112.397 23.0283 111.688 23.0283C110.991 23.0283 110.438 23.3066 110.027 23.8633C109.617 24.4141 109.412 25.2402 109.412 26.3418ZM126.252 26.3418C126.252 27.8125 125.918 28.9873 125.25 29.8662C124.582 30.7393 123.686 31.1758 122.561 31.1758C121.518 31.1758 120.683 30.833 120.056 30.1475V34.6562H117.92V21.4902H119.889L119.977 22.457C120.604 21.6953 121.456 21.3145 122.534 21.3145C123.694 21.3145 124.603 21.748 125.259 22.6152C125.921 23.4766 126.252 24.6748 126.252 26.21V26.3418ZM124.125 26.1572C124.125 25.208 123.935 24.4551 123.554 23.8984C123.179 23.3418 122.64 23.0635 121.937 23.0635C121.063 23.0635 120.437 23.4238 120.056 24.1445V28.3633C120.442 29.1016 121.075 29.4707 121.954 29.4707C122.634 29.4707 123.164 29.1982 123.545 28.6533C123.932 28.1025 124.125 27.2705 124.125 26.1572ZM134.004 21.4902H136.131V31H134.004V24.6543L130.277 31H128.15V21.4902H130.277V27.8359L134.004 21.4902ZM146.019 21.4902V31H143.892V27.5107H141.896L139.866 31H137.651L139.893 27.1592C139.307 26.9131 138.855 26.5615 138.539 26.1045C138.229 25.6475 138.073 25.123 138.073 24.5312C138.073 23.6465 138.413 22.9229 139.093 22.3604C139.778 21.792 140.701 21.502 141.861 21.4902H146.019ZM140.209 24.584C140.209 24.9824 140.355 25.3076 140.648 25.5596C140.947 25.8057 141.328 25.9287 141.791 25.9287H143.892V23.1865H141.923C141.401 23.1865 140.985 23.3184 140.675 23.582C140.364 23.8457 140.209 24.1797 140.209 24.584ZM161.338 31H152.733V29.5322L156.996 24.8828C157.611 24.1973 158.048 23.626 158.306 23.1689C158.569 22.7061 158.701 22.2432 158.701 21.7803C158.701 21.1709 158.528 20.6787 158.183 20.3037C157.843 19.9287 157.383 19.7412 156.803 19.7412C156.111 19.7412 155.575 19.9521 155.194 20.374C154.813 20.7959 154.623 21.373 154.623 22.1055H152.487C152.487 21.3262 152.663 20.626 153.015 20.0049C153.372 19.3779 153.879 18.8916 154.535 18.5459C155.197 18.2002 155.959 18.0273 156.82 18.0273C158.062 18.0273 159.041 18.3408 159.756 18.9678C160.477 19.5889 160.837 20.4502 160.837 21.5518C160.837 22.1904 160.655 22.8613 160.292 23.5645C159.935 24.2617 159.346 25.0557 158.525 25.9463L155.396 29.2949H161.338V31Z" fill="#5C6D7D"/>
<defs>
<clipPath id="clip0_2401_201">
<rect width="34" height="34" fill="white" transform="translate(10 9)"/>
</clipPath>
</defs>
</svg>
