<svg width="149" height="59" viewBox="0 0 149 59" fill="none" xmlns="http://www.w3.org/2000/svg">
<path d="M52.9648 32.9844H51.5234V38H48.6758V25.3203H51.5234V30.3828H52.7773L56.2812 25.3203H59.7969L55.2148 31.3906L60.1836 38H56.4805L52.9648 32.9844ZM70.3242 38C70.1992 37.7578 70.0898 37.3633 69.9961 36.8164C69.0898 37.7617 67.9805 38.2344 66.668 38.2344C65.3945 38.2344 64.3555 37.8711 63.5508 37.1445C62.7461 36.418 62.3438 35.5195 62.3438 34.4492C62.3438 33.0977 62.8438 32.0625 63.8438 31.3438C64.8516 30.6172 66.2891 30.2539 68.1562 30.2539H69.9023V29.4219C69.9023 28.7656 69.7188 28.2422 69.3516 27.8516C68.9844 27.4531 68.4258 27.2539 67.6758 27.2539C67.0273 27.2539 66.4961 27.418 66.082 27.7461C65.668 28.0664 65.4609 28.4766 65.4609 28.9766H62.6133C62.6133 28.2812 62.8438 27.6328 63.3047 27.0312C63.7656 26.4219 64.3906 25.9453 65.1797 25.6016C65.9766 25.2578 66.8633 25.0859 67.8398 25.0859C69.3242 25.0859 70.5078 25.4609 71.3906 26.2109C72.2734 26.9531 72.7266 28 72.75 29.3516V35.0703C72.75 36.2109 72.9102 37.1211 73.2305 37.8008V38H70.3242ZM67.1953 35.9492C67.7578 35.9492 68.2852 35.8125 68.7773 35.5391C69.2773 35.2656 69.6523 34.8984 69.9023 34.4375V32.0469H68.3672C67.3125 32.0469 66.5195 32.2305 65.9883 32.5977C65.457 32.9648 65.1914 33.4844 65.1914 34.1562C65.1914 34.7031 65.3711 35.1406 65.7305 35.4688C66.0977 35.7891 66.5859 35.9492 67.1953 35.9492ZM86.5234 27.582H82.4102V38H79.5625V27.582H75.4961V25.3203H86.5234V27.582ZM96.8164 38C96.6914 37.7578 96.582 37.3633 96.4883 36.8164C95.582 37.7617 94.4727 38.2344 93.1602 38.2344C91.8867 38.2344 90.8477 37.8711 90.043 37.1445C89.2383 36.418 88.8359 35.5195 88.8359 34.4492C88.8359 33.0977 89.3359 32.0625 90.3359 31.3438C91.3438 30.6172 92.7812 30.2539 94.6484 30.2539H96.3945V29.4219C96.3945 28.7656 96.2109 28.2422 95.8438 27.8516C95.4766 27.4531 94.918 27.2539 94.168 27.2539C93.5195 27.2539 92.9883 27.418 92.5742 27.7461C92.1602 28.0664 91.9531 28.4766 91.9531 28.9766H89.1055C89.1055 28.2812 89.3359 27.6328 89.7969 27.0312C90.2578 26.4219 90.8828 25.9453 91.6719 25.6016C92.4688 25.2578 93.3555 25.0859 94.332 25.0859C95.8164 25.0859 97 25.4609 97.8828 26.2109C98.7656 26.9531 99.2188 28 99.2422 29.3516V35.0703C99.2422 36.2109 99.4023 37.1211 99.7227 37.8008V38H96.8164ZM93.6875 35.9492C94.25 35.9492 94.7773 35.8125 95.2695 35.5391C95.7695 35.2656 96.1445 34.8984 96.3945 34.4375V32.0469H94.8594C93.8047 32.0469 93.0117 32.2305 92.4805 32.5977C91.9492 32.9648 91.6836 33.4844 91.6836 34.1562C91.6836 34.7031 91.8633 35.1406 92.2227 35.4688C92.5898 35.7891 93.0781 35.9492 93.6875 35.9492ZM114 25.3203V38H111.152V27.6172H107.566L107.332 32.0352C107.184 34.1602 106.773 35.6875 106.102 36.6172C105.438 37.5391 104.418 38 103.043 38H102.164L102.152 35.6328L102.738 35.5742C103.363 35.4883 103.816 35.1094 104.098 34.4375C104.387 33.7578 104.57 32.5234 104.648 30.7344L104.883 25.3203H114ZM117.496 31.543C117.496 30.3008 117.742 29.1836 118.234 28.1914C118.727 27.1914 119.418 26.4258 120.309 25.8945C121.199 25.3555 122.223 25.0859 123.379 25.0859C125.09 25.0859 126.477 25.6367 127.539 26.7383C128.609 27.8398 129.188 29.3008 129.273 31.1211L129.285 31.7891C129.285 33.0391 129.043 34.1562 128.559 35.1406C128.082 36.125 127.395 36.8867 126.496 37.4258C125.605 37.9648 124.574 38.2344 123.402 38.2344C121.613 38.2344 120.18 37.6406 119.102 36.4531C118.031 35.2578 117.496 33.668 117.496 31.6836V31.543ZM120.344 31.7891C120.344 33.0938 120.613 34.1172 121.152 34.8594C121.691 35.5938 122.441 35.9609 123.402 35.9609C124.363 35.9609 125.109 35.5859 125.641 34.8359C126.18 34.0859 126.449 32.9883 126.449 31.543C126.449 30.2617 126.172 29.2461 125.617 28.4961C125.07 27.7461 124.324 27.3711 123.379 27.3711C122.449 27.3711 121.711 27.7422 121.164 28.4844C120.617 29.2188 120.344 30.3203 120.344 31.7891ZM141.137 27.6172H135.629V38H132.793V25.3203H141.137V27.6172Z" fill="white"/>
<path d="M1.5 20H27M27 39.5H1.5M1.5 29.5H17" stroke="white" stroke-width="3" stroke-linecap="round"/>
</svg>
