<svg width="90" height="60" viewBox="0 0 90 60" fill="none" xmlns="http://www.w3.org/2000/svg">
<path d="M1 1H45H80C84.9706 1 89 5.02944 89 10V59H1V1Z" fill="white" stroke="#FFCB6D" stroke-width="2"/>
<g clip-path="url(#clip0_2401_75)">
<path d="M57.8751 22.25C57.7501 22.125 57.6251 21.9999 57.3751 21.9999H33.6251L33 18.75C33 18.5 32.625 18.25 32.375 18.25H28.625C28.2501 18.2499 28.0001 18.5 28.0001 18.875C28.0001 19.25 28.2501 19.5 28.6251 19.5H31.8751L34.8751 34.75C35.2501 36.75 37.1251 38.25 39.1251 38.25H53.5001C53.8751 38.25 54.1251 38 54.1251 37.625C54.1251 37.25 53.8751 37 53.5001 37H39.2501C38.25 37 37.2501 36.5 36.75 35.6249L55.0001 33.125C55.2501 33.125 55.5 32.875 55.5 32.625L58.0001 22.625C58.0001 22.625 58.0001 22.3749 57.8751 22.25ZM54.375 32L36.125 34.375L33.875 23.1249H56.5001L54.375 32Z" fill="#33485D"/>
<path d="M38.625 39.5C36.8751 39.5 35.5001 40.875 35.5001 42.625C35.5001 44.375 36.8751 45.75 38.625 45.75C40.3751 45.75 41.75 44.3749 41.75 42.625C41.7501 40.875 40.3751 39.5 38.625 39.5ZM38.625 44.5C37.625 44.5 36.75 43.6249 36.75 42.625C36.75 41.625 37.625 40.75 38.625 40.75C39.6251 40.75 40.5 41.625 40.5 42.625C40.5 43.6249 39.6251 44.5 38.625 44.5Z" fill="#33485D"/>
<path d="M51.125 39.5C49.375 39.5 48.0001 40.875 48.0001 42.625C48.0001 44.375 49.3751 45.75 51.125 45.75C52.8751 45.75 54.25 44.3749 54.25 42.625C54.25 40.875 52.875 39.5 51.125 39.5ZM51.125 44.5C50.125 44.5 49.25 43.6249 49.25 42.625C49.25 41.625 50.125 40.75 51.125 40.75C52.1251 40.75 53 41.625 53 42.625C53 43.6249 52.125 44.5 51.125 44.5Z" fill="#33485D"/>
</g>
<rect x="54" y="7" width="30" height="20" rx="10" fill="#FFBE48" stroke="#FFBE48" stroke-width="2"/>
<path d="M67.6865 16.1484H68.7393C69.2406 16.1484 69.612 16.0231 69.8535 15.7725C70.0951 15.5218 70.2158 15.1891 70.2158 14.7744C70.2158 14.3734 70.0951 14.0612 69.8535 13.8379C69.6165 13.6146 69.2884 13.5029 68.8691 13.5029C68.4909 13.5029 68.1742 13.6077 67.9189 13.8174C67.6637 14.0225 67.5361 14.2913 67.5361 14.624H65.5605C65.5605 14.1045 65.6995 13.6396 65.9775 13.2295C66.2601 12.8148 66.652 12.4912 67.1533 12.2588C67.6592 12.0264 68.2152 11.9102 68.8213 11.9102C69.874 11.9102 70.6989 12.1631 71.2959 12.6689C71.8929 13.1702 72.1914 13.863 72.1914 14.7471C72.1914 15.2028 72.0524 15.6221 71.7744 16.0049C71.4964 16.3877 71.1318 16.6816 70.6807 16.8867C71.2412 17.0872 71.6582 17.388 71.9316 17.7891C72.2096 18.1901 72.3486 18.6641 72.3486 19.2109C72.3486 20.0951 72.0251 20.8037 71.3779 21.3369C70.7354 21.8701 69.8831 22.1367 68.8213 22.1367C67.8278 22.1367 67.0143 21.8747 66.3809 21.3506C65.752 20.8265 65.4375 20.1338 65.4375 19.2725H67.4131C67.4131 19.6462 67.5521 19.9515 67.8301 20.1885C68.1126 20.4255 68.459 20.5439 68.8691 20.5439C69.3385 20.5439 69.7054 20.4209 69.9697 20.1748C70.2386 19.9242 70.373 19.5938 70.373 19.1836C70.373 18.1901 69.8262 17.6934 68.7324 17.6934H67.6865V16.1484Z" fill="#33485D"/>
<defs>
<clipPath id="clip0_2401_75">
<rect width="30" height="30" fill="white" transform="translate(28 17)"/>
</clipPath>
</defs>
</svg>
