<svg width="90" height="60" viewBox="0 0 90 60" fill="none" xmlns="http://www.w3.org/2000/svg">
<g clip-path="url(#clip0_2401_87)">
<path d="M59.5357 24.8263C58.5451 22.1401 56.1738 20.3825 53.3479 20.2387C53.3367 20.2384 53.3262 20.238 53.3154 20.238H52.9006C49.333 20.238 46.2684 22.4349 44.9888 25.5466C43.7091 22.4349 40.6446 20.238 37.0769 20.238H36.6622C36.6513 20.238 36.6405 20.2383 36.6297 20.2387C33.8101 20.3822 31.4461 22.1411 30.461 24.8291C29.4439 27.6043 30.1372 30.5707 32.268 32.5697L43.4773 43.1719C43.9147 43.5656 44.4679 43.7621 45.0169 43.7621C45.5714 43.7621 46.1213 43.5618 46.5431 43.162L48.2473 41.5538C48.6751 41.126 48.9173 40.562 48.9288 39.9663C48.9403 39.3573 48.7099 38.7846 48.2793 38.3543C48.0301 38.1051 47.6262 38.1051 47.377 38.3543C47.1279 38.6034 47.1279 39.0073 47.377 39.2565C47.7589 39.6387 47.7452 40.2512 47.3585 40.6382L45.6667 42.2343C45.3046 42.5766 44.7176 42.5715 44.3424 42.234L33.1427 31.6404C31.3897 29.9958 30.8215 27.5543 31.6592 25.2681C32.4632 23.0739 34.3856 21.6363 36.6788 21.5138H37.0769C41.0877 21.5138 44.3507 24.7768 44.3507 28.7876C44.3507 29.1398 44.6365 29.4256 44.9887 29.4256C45.3409 29.4256 45.6268 29.1398 45.6268 28.7876C45.6268 24.7768 48.8897 21.5138 52.9005 21.5138H53.2987C55.5991 21.637 57.5293 23.0742 58.3383 25.2678C59.1783 27.5456 58.6136 29.9881 56.8519 31.6546L53.2789 35.2277C52.8498 35.6568 52.6133 36.219 52.6133 36.8113C52.6133 37.4038 52.8497 37.9659 53.2789 38.395C53.528 38.6441 53.9319 38.6441 54.1811 38.395C54.4302 38.1458 54.4302 37.7419 54.1811 37.4927C53.9929 37.3045 53.8895 37.0627 53.8895 36.8113C53.8895 36.5599 53.9929 36.3181 54.1811 36.1298L57.7414 32.5692C59.8682 30.5582 60.5554 27.5913 59.5357 24.8263Z" fill="#33485D"/>
</g>
<path d="M1 1H89V59H1V1Z" stroke="#FFCB6D" stroke-width="2"/>
<defs>
<clipPath id="clip0_2401_87">
<rect width="30" height="30" fill="white" transform="translate(30 17)"/>
</clipPath>
</defs>
</svg>
