<svg width="18" height="11" viewBox="0 0 18 11" fill="none" xmlns="http://www.w3.org/2000/svg">
<path d="M8.42188 0.046875V6.60254C8.42188 7.69173 8.08008 8.55306 7.39648 9.18652C6.71745 9.81999 5.78776 10.1367 4.60742 10.1367C3.44531 10.1367 2.52246 9.8291 1.83887 9.21387C1.15527 8.59863 0.806641 7.75326 0.792969 6.67773V0.046875H2.84375V6.61621C2.84375 7.2679 2.9987 7.74414 3.30859 8.04492C3.62305 8.34115 4.05599 8.48926 4.60742 8.48926C5.76042 8.48926 6.34603 7.88314 6.36426 6.6709V0.046875H8.42188ZM15.2598 10C15.1686 9.82227 15.1025 9.60124 15.0615 9.33691C14.583 9.87012 13.9609 10.1367 13.1953 10.1367C12.4707 10.1367 11.8691 9.92708 11.3906 9.50781C10.9167 9.08854 10.6797 8.5599 10.6797 7.92188C10.6797 7.13802 10.9691 6.53646 11.5479 6.11719C12.1312 5.69792 12.972 5.486 14.0703 5.48145H14.9795V5.05762C14.9795 4.71582 14.8906 4.44238 14.7129 4.2373C14.5397 4.03223 14.264 3.92969 13.8857 3.92969C13.5531 3.92969 13.291 4.00944 13.0996 4.16895C12.9128 4.32845 12.8193 4.5472 12.8193 4.8252H10.8438C10.8438 4.39681 10.9759 4.00033 11.2402 3.63574C11.5046 3.27116 11.8783 2.98633 12.3613 2.78125C12.8444 2.57161 13.3867 2.4668 13.9883 2.4668C14.8997 2.4668 15.6221 2.69694 16.1553 3.15723C16.693 3.61296 16.9619 4.25553 16.9619 5.08496V8.29102C16.9665 8.99284 17.0645 9.52376 17.2559 9.88379V10H15.2598ZM13.626 8.62598C13.9176 8.62598 14.1865 8.56217 14.4326 8.43457C14.6787 8.30241 14.861 8.12695 14.9795 7.9082V6.63672H14.2412C13.2523 6.63672 12.7259 6.97852 12.6621 7.66211L12.6553 7.77832C12.6553 8.02441 12.7419 8.22721 12.915 8.38672C13.0882 8.54622 13.3252 8.62598 13.626 8.62598Z" fill="#33485D"/>
</svg>
