<svg width="277" height="60" viewBox="0 0 277 60" fill="none" xmlns="http://www.w3.org/2000/svg">
<path d="M0 10C0 4.47715 4.47715 0 10 0H277V50C277 55.5228 272.523 60 267 60H0V10Z" fill="#47B39C"/>
<path d="M36.3516 29.9141C36.3516 31.5859 36.0625 33.0547 35.4844 34.3203C34.9062 35.5781 34.0781 36.5469 33 37.2266C31.9297 37.8984 30.6953 38.2344 29.2969 38.2344C27.9141 38.2344 26.6797 37.8984 25.5938 37.2266C24.5156 36.5469 23.6797 35.582 23.0859 34.332C22.5 33.082 22.2031 31.6406 22.1953 30.0078V29.0469C22.1953 27.3828 22.4883 25.9141 23.0742 24.6406C23.668 23.3672 24.5 22.3945 25.5703 21.7227C26.6484 21.043 27.8828 20.7031 29.2734 20.7031C30.6641 20.7031 31.8945 21.0391 32.9648 21.7109C34.043 22.375 34.875 23.3359 35.4609 24.5938C36.0469 25.8438 36.3438 27.3008 36.3516 28.9648V29.9141ZM33.3867 29.0234C33.3867 27.1328 33.0273 25.6836 32.3086 24.6758C31.5977 23.668 30.5859 23.1641 29.2734 23.1641C27.9922 23.1641 26.9883 23.668 26.2617 24.6758C25.543 25.6758 25.1758 27.0938 25.1602 28.9297V29.9141C25.1602 31.7891 25.5234 33.2383 26.25 34.2617C26.9844 35.2852 28 35.7969 29.2969 35.7969C30.6094 35.7969 31.6172 35.2969 32.3203 34.2969C33.0312 33.2969 33.3867 31.8359 33.3867 29.9141V29.0234ZM38.5547 31.8359C38.5547 29.7656 38.9609 28.125 39.7734 26.9141C40.5938 25.6953 41.7344 25.0859 43.1953 25.0859C43.7891 25.0859 44.3281 25.1953 44.8125 25.4141V20H47.6484V25.4609C48.1484 25.2109 48.7344 25.0859 49.4062 25.0859C50.8594 25.0859 51.9961 25.6914 52.8164 26.9023C53.6445 28.1055 54.0586 29.832 54.0586 32.082C54.0586 33.9805 53.6445 35.4805 52.8164 36.582C51.9883 37.6836 50.8594 38.2344 49.4297 38.2344C48.7812 38.2344 48.1875 38.1172 47.6484 37.8828V42.875H44.8125V37.9297C44.3359 38.1328 43.7891 38.2344 43.1719 38.2344C41.8047 38.2344 40.7109 37.7305 39.8906 36.7227C39.0781 35.707 38.6367 34.3125 38.5664 32.5391L38.5547 31.8359ZM51.2109 31.8359C51.2109 30.4141 50.9844 29.3164 50.5312 28.543C50.0781 27.7617 49.4375 27.3711 48.6094 27.3711C48.2578 27.3711 47.9375 27.4219 47.6484 27.5234V35.8438C47.9062 35.9219 48.2344 35.9609 48.6328 35.9609C50.3516 35.9609 51.2109 34.5859 51.2109 31.8359ZM41.3906 32.082C41.3906 33.3477 41.6016 34.3125 42.0234 34.9766C42.4453 35.6328 43.0703 35.9609 43.8984 35.9609C44.25 35.9609 44.5547 35.9219 44.8125 35.8438V27.4883C44.5469 27.4102 44.25 27.3711 43.9219 27.3711C43.1094 27.3711 42.4844 27.75 42.0469 28.5078C41.6094 29.2578 41.3906 30.4492 41.3906 32.082ZM55.9805 31.543C55.9805 30.3008 56.2266 29.1836 56.7188 28.1914C57.2109 27.1914 57.9023 26.4258 58.793 25.8945C59.6836 25.3555 60.707 25.0859 61.8633 25.0859C63.5742 25.0859 64.9609 25.6367 66.0234 26.7383C67.0938 27.8398 67.6719 29.3008 67.7578 31.1211L67.7695 31.7891C67.7695 33.0391 67.5273 34.1562 67.043 35.1406C66.5664 36.125 65.8789 36.8867 64.9805 37.4258C64.0898 37.9648 63.0586 38.2344 61.8867 38.2344C60.0977 38.2344 58.6641 37.6406 57.5859 36.4531C56.5156 35.2578 55.9805 33.668 55.9805 31.6836V31.543ZM58.8281 31.7891C58.8281 33.0938 59.0977 34.1172 59.6367 34.8594C60.1758 35.5938 60.9258 35.9609 61.8867 35.9609C62.8477 35.9609 63.5938 35.5859 64.125 34.8359C64.6641 34.0859 64.9336 32.9883 64.9336 31.543C64.9336 30.2617 64.6562 29.2461 64.1016 28.4961C63.5547 27.7461 62.8086 27.3711 61.8633 27.3711C60.9336 27.3711 60.1953 27.7422 59.6484 28.4844C59.1016 29.2188 58.8281 30.3203 58.8281 31.7891ZM81.2812 31.7891C81.2812 33.75 80.8359 35.3164 79.9453 36.4883C79.0547 37.6523 77.8594 38.2344 76.3594 38.2344C74.9688 38.2344 73.8555 37.7773 73.0195 36.8633V42.875H70.1719V25.3203H72.7969L72.9141 26.6094C73.75 25.5938 74.8867 25.0859 76.3242 25.0859C77.8711 25.0859 79.082 25.6641 79.957 26.8203C80.8398 27.9688 81.2812 29.5664 81.2812 31.6133V31.7891ZM78.4453 31.543C78.4453 30.2773 78.1914 29.2734 77.6836 28.5312C77.1836 27.7891 76.4648 27.418 75.5273 27.418C74.3633 27.418 73.5273 27.8984 73.0195 28.8594V34.4844C73.5352 35.4688 74.3789 35.9609 75.5508 35.9609C76.457 35.9609 77.1641 35.5977 77.6719 34.8711C78.1875 34.1367 78.4453 33.0273 78.4453 31.543ZM91.2305 34.4961L94.9805 25.3203H98.543V38H95.6953V29.6094L92.2031 38H90.2695L86.7656 29.5625V38H83.918V25.3203H87.5039L91.2305 34.4961ZM109.664 25.3203H112.5V38H109.664V29.5391L104.695 38H101.859V25.3203H104.695V33.7812L109.664 25.3203ZM125.508 27.582H121.395V38H118.547V27.582H114.48V25.3203H125.508V27.582ZM130.477 29.3516H133.266C134.305 29.3516 135.211 29.5312 135.984 29.8906C136.758 30.25 137.344 30.7539 137.742 31.4023C138.148 32.0508 138.352 32.8047 138.352 33.6641C138.352 34.9688 137.891 36.0156 136.969 36.8047C136.047 37.5938 134.82 37.9922 133.289 38H127.629V25.3203H130.477V29.3516ZM130.477 31.6367V35.7266H133.254C133.949 35.7266 134.496 35.5547 134.895 35.2109C135.301 34.8594 135.504 34.3633 135.504 33.7227C135.504 33.082 135.305 32.5781 134.906 32.2109C134.516 31.8359 133.984 31.6445 133.312 31.6367H130.477ZM156.211 28.7891C156.211 29.3516 156.039 29.8711 155.695 30.3477C155.359 30.8164 154.883 31.1914 154.266 31.4727C155.719 31.9805 156.445 32.9609 156.445 34.4141C156.445 35.5781 155.973 36.5078 155.027 37.2031C154.082 37.8906 152.816 38.2344 151.23 38.2344C150.262 38.2344 149.379 38.0742 148.582 37.7539C147.785 37.4258 147.164 36.9648 146.719 36.3711C146.273 35.7695 146.051 35.0586 146.051 34.2383H148.887C148.887 34.7539 149.117 35.1875 149.578 35.5391C150.039 35.8828 150.621 36.0547 151.324 36.0547C152.02 36.0547 152.57 35.8945 152.977 35.5742C153.391 35.2461 153.598 34.8203 153.598 34.2969C153.598 33.6797 153.418 33.2344 153.059 32.9609C152.699 32.6875 152.145 32.5508 151.395 32.5508H149.355V30.5H151.465C152.738 30.4844 153.375 29.9609 153.375 28.9297C153.375 28.4141 153.191 28.0117 152.824 27.7227C152.457 27.4336 151.953 27.2891 151.312 27.2891C150.688 27.2891 150.16 27.4453 149.73 27.7578C149.301 28.0625 149.086 28.4492 149.086 28.918H146.25C146.25 27.8008 146.719 26.8867 147.656 26.1758C148.594 25.457 149.785 25.0977 151.23 25.0977C152.801 25.0977 154.023 25.418 154.898 26.0586C155.773 26.6992 156.211 27.6094 156.211 28.7891ZM166.441 38C166.316 37.7578 166.207 37.3633 166.113 36.8164C165.207 37.7617 164.098 38.2344 162.785 38.2344C161.512 38.2344 160.473 37.8711 159.668 37.1445C158.863 36.418 158.461 35.5195 158.461 34.4492C158.461 33.0977 158.961 32.0625 159.961 31.3438C160.969 30.6172 162.406 30.2539 164.273 30.2539H166.02V29.4219C166.02 28.7656 165.836 28.2422 165.469 27.8516C165.102 27.4531 164.543 27.2539 163.793 27.2539C163.145 27.2539 162.613 27.418 162.199 27.7461C161.785 28.0664 161.578 28.4766 161.578 28.9766H158.73C158.73 28.2812 158.961 27.6328 159.422 27.0312C159.883 26.4219 160.508 25.9453 161.297 25.6016C162.094 25.2578 162.98 25.0859 163.957 25.0859C165.441 25.0859 166.625 25.4609 167.508 26.2109C168.391 26.9531 168.844 28 168.867 29.3516V35.0703C168.867 36.2109 169.027 37.1211 169.348 37.8008V38H166.441ZM163.312 35.9492C163.875 35.9492 164.402 35.8125 164.895 35.5391C165.395 35.2656 165.77 34.8984 166.02 34.4375V32.0469H164.484C163.43 32.0469 162.637 32.2305 162.105 32.5977C161.574 32.9648 161.309 33.4844 161.309 34.1562C161.309 34.7031 161.488 35.1406 161.848 35.4688C162.215 35.7891 162.703 35.9492 163.312 35.9492ZM176.355 32.9844H174.914V38H172.066V25.3203H174.914V30.3828H176.168L179.672 25.3203H183.188L178.605 31.3906L183.574 38H179.871L176.355 32.9844ZM192.715 38C192.59 37.7578 192.48 37.3633 192.387 36.8164C191.48 37.7617 190.371 38.2344 189.059 38.2344C187.785 38.2344 186.746 37.8711 185.941 37.1445C185.137 36.418 184.734 35.5195 184.734 34.4492C184.734 33.0977 185.234 32.0625 186.234 31.3438C187.242 30.6172 188.68 30.2539 190.547 30.2539H192.293V29.4219C192.293 28.7656 192.109 28.2422 191.742 27.8516C191.375 27.4531 190.816 27.2539 190.066 27.2539C189.418 27.2539 188.887 27.418 188.473 27.7461C188.059 28.0664 187.852 28.4766 187.852 28.9766H185.004C185.004 28.2812 185.234 27.6328 185.695 27.0312C186.156 26.4219 186.781 25.9453 187.57 25.6016C188.367 25.2578 189.254 25.0859 190.23 25.0859C191.715 25.0859 192.898 25.4609 193.781 26.2109C194.664 26.9531 195.117 28 195.141 29.3516V35.0703C195.141 36.2109 195.301 37.1211 195.621 37.8008V38H192.715ZM189.586 35.9492C190.148 35.9492 190.676 35.8125 191.168 35.5391C191.668 35.2656 192.043 34.8984 192.293 34.4375V32.0469H190.758C189.703 32.0469 188.91 32.2305 188.379 32.5977C187.848 32.9648 187.582 33.4844 187.582 34.1562C187.582 34.7031 187.762 35.1406 188.121 35.4688C188.488 35.7891 188.977 35.9492 189.586 35.9492ZM207.727 28.7891C207.727 29.3516 207.555 29.8711 207.211 30.3477C206.875 30.8164 206.398 31.1914 205.781 31.4727C207.234 31.9805 207.961 32.9609 207.961 34.4141C207.961 35.5781 207.488 36.5078 206.543 37.2031C205.598 37.8906 204.332 38.2344 202.746 38.2344C201.777 38.2344 200.895 38.0742 200.098 37.7539C199.301 37.4258 198.68 36.9648 198.234 36.3711C197.789 35.7695 197.566 35.0586 197.566 34.2383H200.402C200.402 34.7539 200.633 35.1875 201.094 35.5391C201.555 35.8828 202.137 36.0547 202.84 36.0547C203.535 36.0547 204.086 35.8945 204.492 35.5742C204.906 35.2461 205.113 34.8203 205.113 34.2969C205.113 33.6797 204.934 33.2344 204.574 32.9609C204.215 32.6875 203.66 32.5508 202.91 32.5508H200.871V30.5H202.98C204.254 30.4844 204.891 29.9609 204.891 28.9297C204.891 28.4141 204.707 28.0117 204.34 27.7227C203.973 27.4336 203.469 27.2891 202.828 27.2891C202.203 27.2891 201.676 27.4453 201.246 27.7578C200.816 28.0625 200.602 28.4492 200.602 28.918H197.766C197.766 27.8008 198.234 26.8867 199.172 26.1758C200.109 25.457 201.301 25.0977 202.746 25.0977C204.316 25.0977 205.539 25.418 206.414 26.0586C207.289 26.6992 207.727 27.6094 207.727 28.7891Z" fill="white"/>
<g clip-path="url(#clip0_2401_147)">
<path d="M254.875 20.25C254.75 20.125 254.625 19.9999 254.375 19.9999H230.625L230 16.75C230 16.5 229.625 16.25 229.375 16.25H225.625C225.25 16.2499 225 16.5 225 16.875C225 17.25 225.25 17.5 225.625 17.5H228.875L231.875 32.75C232.25 34.75 234.125 36.25 236.125 36.25H250.5C250.875 36.25 251.125 36 251.125 35.625C251.125 35.25 250.875 35 250.5 35H236.25C235.25 35 234.25 34.5 233.75 33.6249L252 31.125C252.25 31.125 252.5 30.875 252.5 30.625L255 20.625C255 20.625 255 20.3749 254.875 20.25ZM251.375 30L233.125 32.375L230.875 21.1249H253.5L251.375 30Z" fill="white"/>
<path d="M235.625 37.5C233.875 37.5 232.5 38.875 232.5 40.625C232.5 42.375 233.875 43.75 235.625 43.75C237.375 43.75 238.75 42.3749 238.75 40.625C238.75 38.875 237.375 37.5 235.625 37.5ZM235.625 42.5C234.625 42.5 233.75 41.6249 233.75 40.625C233.75 39.625 234.625 38.75 235.625 38.75C236.625 38.75 237.5 39.625 237.5 40.625C237.5 41.6249 236.625 42.5 235.625 42.5Z" fill="white"/>
<path d="M248.125 37.5C246.375 37.5 245 38.875 245 40.625C245 42.375 246.375 43.75 248.125 43.75C249.875 43.75 251.25 42.3749 251.25 40.625C251.25 38.875 249.875 37.5 248.125 37.5ZM248.125 42.5C247.125 42.5 246.25 41.6249 246.25 40.625C246.25 39.625 247.125 38.75 248.125 38.75C249.125 38.75 250 39.625 250 40.625C250 41.6249 249.125 42.5 248.125 42.5Z" fill="white"/>
</g>
<defs>
<clipPath id="clip0_2401_147">
<rect width="30" height="30" fill="white" transform="translate(225 15)"/>
</clipPath>
</defs>
</svg>
