<svg width="167" height="60" viewBox="0 0 167 60" fill="none" xmlns="http://www.w3.org/2000/svg">
<path d="M66.958 21.7344H65.7822V26H64.0596V16.0469H65.7822V20.2305H66.7324L69.6582 16.0469H71.7773L68.3594 20.8115L72.0781 26H70L66.958 21.7344ZM75.1885 23.6211L76.6924 18.6035H78.4629L75.5234 27.1211C75.0723 28.3652 74.3066 28.9873 73.2266 28.9873C72.985 28.9873 72.7184 28.9463 72.4268 28.8643V27.5791L72.7412 27.5996C73.1605 27.5996 73.4749 27.5221 73.6846 27.3672C73.8988 27.2168 74.0674 26.9616 74.1904 26.6016L74.4297 25.9658L71.832 18.6035H73.623L75.1885 23.6211ZM85.6953 26H84.0342V19.9434H81.1494V26H79.4883V18.6035H85.6953V26ZM92.0801 18.6035H93.7344V26H92.0801V21.0645L89.1816 26H87.5273V18.6035H89.1816V23.5391L92.0801 18.6035ZM101.322 19.9229H98.9229V26H97.2617V19.9229H94.8896V18.6035H101.322V19.9229ZM104.221 20.9551H105.848C106.454 20.9551 106.982 21.0599 107.434 21.2695C107.885 21.4792 108.227 21.7731 108.459 22.1514C108.696 22.5296 108.814 22.9694 108.814 23.4707C108.814 24.2318 108.546 24.8424 108.008 25.3027C107.47 25.763 106.755 25.9954 105.861 26H102.56V18.6035H104.221V20.9551ZM104.221 22.2881V24.6738H105.841C106.246 24.6738 106.565 24.5736 106.798 24.373C107.035 24.168 107.153 23.8786 107.153 23.5049C107.153 23.1312 107.037 22.8372 106.805 22.623C106.577 22.4043 106.267 22.2926 105.875 22.2881H104.221ZM113.757 26V18.6035H116.758C117.77 18.6035 118.54 18.7812 119.068 19.1367C119.597 19.4876 119.861 19.9935 119.861 20.6543C119.861 20.9961 119.754 21.3037 119.54 21.5771C119.33 21.846 119.018 22.0534 118.604 22.1992C119.087 22.2995 119.469 22.5023 119.752 22.8076C120.035 23.113 120.176 23.473 120.176 23.8877C120.176 24.5758 119.921 25.0999 119.41 25.46C118.904 25.82 118.175 26 117.223 26H113.757ZM115.418 22.8486V24.6875H117.236C118.089 24.6875 118.515 24.3822 118.515 23.7715C118.515 23.1562 118.082 22.8486 117.216 22.8486H115.418ZM115.418 21.6592H116.785C117.729 21.6592 118.2 21.3812 118.2 20.8252C118.2 20.2419 117.754 19.9411 116.86 19.9229H115.418V21.6592ZM68.2432 43H66.5889V35.0088L64.1484 35.8428V34.4414L68.0312 33.0127H68.2432V43ZM77.9229 40.0742H77.082V43H75.4209V35.6035H77.082V38.5566H77.8135L79.8574 35.6035H81.9082L79.2354 39.1445L82.1338 43H79.9736L77.9229 40.0742ZM89.332 35.6035V43H87.6709V36.9434H85.5791L85.4424 39.5205C85.3558 40.7601 85.1165 41.651 84.7246 42.1934C84.3372 42.7311 83.7425 43 82.9404 43H82.4277L82.4209 41.6191L82.7627 41.585C83.1273 41.5348 83.3916 41.3138 83.5557 40.9219C83.7243 40.5254 83.8314 39.8053 83.877 38.7617L84.0137 35.6035H89.332ZM95.7168 35.6035H97.3711V43H95.7168V38.0645L92.8184 43H91.1641V35.6035H92.8184V40.5391L95.7168 35.6035ZM101.767 40.0742H100.926V43H99.2646V35.6035H100.926V38.5566H101.657L103.701 35.6035H105.752L103.079 39.1445L105.978 43H103.817L101.767 40.0742Z" fill="#5C6D7D"/>
<path d="M1 1H166V50C166 54.9706 161.971 59 157 59H1V1Z" stroke="#FFCB6D" stroke-width="2"/>
</svg>
