<svg width="90" height="60" viewBox="0 0 90 60" fill="none" xmlns="http://www.w3.org/2000/svg">
<g clip-path="url(#clip0_307_71)">
<path d="M59.5545 32.632L56.1326 25.3025L57.6097 25.7262C57.9341 25.8193 58.2726 25.6319 58.3655 25.3073C58.4586 24.9829 58.2712 24.6446 57.9468 24.5515L47.6759 21.6041C47.678 21.5602 47.6792 21.5163 47.6792 21.4721C47.6794 20.2525 46.8561 19.1866 45.6759 18.8794C44.4957 18.5719 43.257 19.1007 42.6624 20.1654L32.3905 17.2182C32.0661 17.1251 31.7276 17.3127 31.6345 17.6371C31.5416 17.9616 31.729 18.2998 32.0534 18.3929L34.0806 18.9747L30.4094 26.8379C30.1645 26.9236 30.0002 27.1547 30 27.4144C29.9993 29.3984 31.195 31.1868 33.0286 31.9443C34.8621 32.7019 36.9717 32.2789 38.3715 30.8732C39.3041 29.9639 39.831 28.7171 39.8334 27.4144C39.8334 27.1408 39.6512 26.9007 39.3879 26.8265L35.976 19.5187L42.3244 21.3401C42.3222 21.384 42.321 21.4279 42.321 21.4723C42.3229 22.7158 43.1787 23.795 44.389 24.08V38.9401C42.2929 38.9401 40.5306 38.9082 40.2335 38.9694C39.0993 39.2081 38.2851 40.2055 38.2779 41.3647V42.2202C38.2882 42.5652 38.5682 42.8411 38.9134 42.8461H51.0869C51.432 42.8411 51.712 42.5652 51.7223 42.2202V41.3647C51.7152 40.2055 50.9009 39.2081 49.7668 38.9694C49.5612 38.9082 47.6174 38.9401 45.6112 38.9401V24.08C46.3436 23.907 46.9697 23.4348 47.3378 22.7786L54.2548 24.7635L50.576 32.6435C50.3308 32.7292 50.1666 32.9602 50.1664 33.2197C50.1659 35.2037 51.3616 36.9921 53.1952 37.7496C55.0287 38.5072 57.138 38.0845 58.5379 36.6787C59.4705 35.7692 59.9976 34.5224 60 33.2197C59.9997 32.9461 59.8178 32.7062 59.5545 32.632ZM34.9013 20.0763L38.0282 26.7739H31.7746L34.9013 20.0763ZM34.9013 31.0639C33.1014 31.0744 31.5619 29.7729 31.2731 27.9962H38.5574C38.2464 29.7715 36.7038 31.066 34.9013 31.0639ZM50.5001 41.3647V41.6239H39.5001V41.3647C39.5001 40.6908 40.073 40.1572 40.7467 40.1572H49.2535C49.9272 40.1572 50.5001 40.6908 50.5001 41.3647ZM45.0001 22.929C44.3787 22.9294 43.8254 22.536 43.6218 21.949C43.4181 21.362 43.6089 20.7106 44.0968 20.326C44.585 19.9415 45.2632 19.9085 45.7862 20.2441C46.3092 20.5795 46.562 21.2095 46.4162 21.8135C46.4006 21.8521 46.3892 21.892 46.3818 21.9328C46.1829 22.5272 45.6267 22.9282 45.0001 22.929ZM58.1948 32.5795H51.9412L55.0679 25.8819L58.1948 32.5795ZM55.0679 36.8694C53.268 36.8799 51.7285 35.5785 51.4397 33.8017H58.7241C58.413 35.577 56.8704 36.8716 55.0679 36.8694Z" fill="#33485D"/>
</g>
<rect x="1" y="1" width="88" height="58" stroke="#FFCB6D" stroke-width="2"/>
<defs>
<clipPath id="clip0_307_71">
<rect width="30" height="30" fill="white" transform="translate(30 15)"/>
</clipPath>
</defs>
</svg>
