<svg width="15" height="14" viewBox="0 0 15 14" fill="none" xmlns="http://www.w3.org/2000/svg">
<path opacity="0.5" d="M2.99065 13.9993C2.9358 13.9993 2.88095 13.9825 2.83484 13.9491C2.75323 13.8902 2.71243 13.7905 2.72966 13.6919L3.54869 8.95331L0.079914 5.59779C0.00784131 5.52783 -0.0181197 5.42343 0.0128821 5.32849C0.0441489 5.23328 0.127076 5.16385 0.226971 5.14939L5.02037 4.45798L7.16428 0.146749C7.2088 0.0568061 7.30101 0 7.4017 0C7.50265 0 7.59486 0.0568061 7.63911 0.146749L9.78276 4.45798L14.5765 5.14939C14.6764 5.16385 14.759 5.23302 14.7906 5.32849C14.8216 5.42343 14.7959 5.5281 14.7235 5.59779L11.2547 8.95383L12.0735 13.6922C12.0904 13.7908 12.0496 13.8905 11.9683 13.9494C11.8867 14.0088 11.7783 14.0164 11.689 13.9694L7.4017 11.7323L3.11386 13.9694C3.07517 13.9893 3.03278 13.9993 2.99065 13.9993Z" fill="#FFA800"/>
</svg>
